<svg xmlns="http://www.w3.org/2000/svg" width="24.302" height="32" viewBox="0 0 24.302 32"><defs><style>.a{fill:#f05a27;}</style></defs><path class="a" d="M2885.13,1484.627c0-4.73-2.411-6.4-4.87-7,2.087-.881,3.8-3.108,3.8-6.633,0-6.585-4.127-8.811-11.548-8.811h-11.686V1473.6c6.635-.807,6.544-3.238,9.712-5.687,4.047-3.129,6.38,1.595,6.38,1.595a3.882,3.882,0,0,1,3.332,1.426c-.2-.278-1.321-.038-1.594.026a3.761,3.761,0,0,0-1.385.656,7.391,7.391,0,0,0-2.053,2.724c-1.66,3.384-1.9,7.707-4.2,10.637a10.577,10.577,0,0,1-7.614,3.907,17.362,17.362,0,0,1-2.583.007v5.285h12.1C2880.4,1494.181,2885.13,1491.445,2885.13,1484.627Z" transform="translate(-2860.829 -1462.181)"/></svg>